<mxfile host="app.diagrams.net" agent="Mozilla/5.0 (Macintosh; Intel Mac OS X 10_15_7) AppleWebKit/537.36 (KHTML, like Gecko) Chrome/134.0.0.0 Safari/537.36" version="27.0.9">
  <diagram name="Page-1" id="cIRiGMKgzlBWSNwm_sFe">
    <mxGraphModel dx="1377" dy="767" grid="1" gridSize="10" guides="1" tooltips="1" connect="1" arrows="1" fold="1" page="1" pageScale="1" pageWidth="850" pageHeight="1100" math="0" shadow="0">
      <root>
        <mxCell id="0" />
        <mxCell id="1" parent="0" />
        <mxCell id="SE1tes2HbzKyxx8Ehh8K-1" value="" style="rounded=1;whiteSpace=wrap;html=1;hachureGap=4;fontFamily=Architects Daughter;fontSource=https%3A%2F%2Ffonts.googleapis.com%2Fcss%3Ffamily%3DArchitects%2BDaughter;fillColor=#E6E6E6;strokeColor=none;" vertex="1" parent="1">
          <mxGeometry x="40" y="370" width="180" height="280" as="geometry" />
        </mxCell>
        <mxCell id="SE1tes2HbzKyxx8Ehh8K-10" value="Video" style="html=1;whiteSpace=wrap;strokeColor=none;fillColor=#0079D6;labelPosition=center;verticalLabelPosition=middle;verticalAlign=top;align=center;fontSize=12;outlineConnect=0;spacingTop=-6;fontColor=#FFFFFF;sketch=0;shape=mxgraph.sitemap.video;hachureGap=4;jiggle=2;curveFitting=1;fontFamily=Architects Daughter;fontSource=https%3A%2F%2Ffonts.googleapis.com%2Fcss%3Ffamily%3DArchitects%2BDaughter;" vertex="1" parent="1">
          <mxGeometry x="90" y="440" width="80" height="60" as="geometry" />
        </mxCell>
        <mxCell id="SE1tes2HbzKyxx8Ehh8K-12" value="Audio" style="html=1;whiteSpace=wrap;strokeColor=none;fillColor=#0079D6;labelPosition=center;verticalLabelPosition=middle;verticalAlign=top;align=center;fontSize=12;outlineConnect=0;spacingTop=-6;fontColor=#FFFFFF;sketch=0;shape=mxgraph.sitemap.audio;hachureGap=4;jiggle=2;curveFitting=1;fontFamily=Architects Daughter;fontSource=https%3A%2F%2Ffonts.googleapis.com%2Fcss%3Ffamily%3DArchitects%2BDaughter;" vertex="1" parent="1">
          <mxGeometry x="90" y="530" width="80" height="60" as="geometry" />
        </mxCell>
        <mxCell id="SE1tes2HbzKyxx8Ehh8K-13" value="&lt;font style=&quot;font-size: 18px;&quot;&gt;Vidoe Input&lt;/font&gt;" style="rounded=0;whiteSpace=wrap;html=1;sketch=1;hachureGap=4;jiggle=2;curveFitting=1;fontFamily=Architects Daughter;fontSource=https%3A%2F%2Ffonts.googleapis.com%2Fcss%3Ffamily%3DArchitects%2BDaughter;fillColor=none;strokeColor=none;" vertex="1" parent="1">
          <mxGeometry x="70" y="370" width="120" height="60" as="geometry" />
        </mxCell>
        <mxCell id="SE1tes2HbzKyxx8Ehh8K-14" value="" style="rounded=1;whiteSpace=wrap;html=1;hachureGap=4;fontFamily=Architects Daughter;fontSource=https%3A%2F%2Ffonts.googleapis.com%2Fcss%3Ffamily%3DArchitects%2BDaughter;fillColor=#E6E6E6;strokeColor=none;" vertex="1" parent="1">
          <mxGeometry x="290" y="367.5" width="480" height="280" as="geometry" />
        </mxCell>
        <mxCell id="SE1tes2HbzKyxx8Ehh8K-15" value="&lt;font style=&quot;font-size: 16px;&quot;&gt;Video&amp;nbsp;&lt;/font&gt;&lt;div&gt;&lt;font style=&quot;font-size: 16px;&quot;&gt;Encoder&lt;/font&gt;&lt;/div&gt;" style="rounded=1;whiteSpace=wrap;html=1;sketch=1;hachureGap=4;jiggle=2;curveFitting=1;fontFamily=Architects Daughter;fontSource=https%3A%2F%2Ffonts.googleapis.com%2Fcss%3Ffamily%3DArchitects%2BDaughter;fillColor=#ffe6cc;strokeColor=#d79b00;" vertex="1" parent="1">
          <mxGeometry x="320" y="415" width="110" height="185" as="geometry" />
        </mxCell>
        <mxCell id="SE1tes2HbzKyxx8Ehh8K-35" value="" style="group;strokeColor=default;strokeWidth=3;" vertex="1" connectable="0" parent="1">
          <mxGeometry x="480" y="400" width="10" height="220" as="geometry" />
        </mxCell>
        <mxCell id="SE1tes2HbzKyxx8Ehh8K-16" value="" style="rounded=1;whiteSpace=wrap;html=1;hachureGap=4;fontFamily=Architects Daughter;fontSource=https%3A%2F%2Ffonts.googleapis.com%2Fcss%3Ffamily%3DArchitects%2BDaughter;fillStyle=solid;fillColor=#fff2cc;strokeColor=#d6b656;gradientColor=light-dark(#FF6666,#EDEDED);gradientDirection=south;shadow=0;" vertex="1" parent="SE1tes2HbzKyxx8Ehh8K-35">
          <mxGeometry width="10" height="220" as="geometry" />
        </mxCell>
        <mxCell id="SE1tes2HbzKyxx8Ehh8K-22" value="" style="endArrow=none;html=1;rounded=0;hachureGap=4;fontFamily=Architects Daughter;fontSource=https%3A%2F%2Ffonts.googleapis.com%2Fcss%3Ffamily%3DArchitects%2BDaughter;strokeWidth=1;endSize=5;startSize=6;" edge="1" parent="SE1tes2HbzKyxx8Ehh8K-35">
          <mxGeometry width="50" height="50" relative="1" as="geometry">
            <mxPoint y="67.69230769230771" as="sourcePoint" />
            <mxPoint x="10" y="67.69230769230771" as="targetPoint" />
          </mxGeometry>
        </mxCell>
        <mxCell id="SE1tes2HbzKyxx8Ehh8K-24" value="" style="endArrow=none;html=1;rounded=0;hachureGap=4;fontFamily=Architects Daughter;fontSource=https%3A%2F%2Ffonts.googleapis.com%2Fcss%3Ffamily%3DArchitects%2BDaughter;strokeWidth=1;endSize=5;startSize=6;" edge="1" parent="SE1tes2HbzKyxx8Ehh8K-35">
          <mxGeometry width="50" height="50" relative="1" as="geometry">
            <mxPoint y="50.769230769230774" as="sourcePoint" />
            <mxPoint x="10" y="50.769230769230774" as="targetPoint" />
          </mxGeometry>
        </mxCell>
        <mxCell id="SE1tes2HbzKyxx8Ehh8K-25" value="" style="endArrow=none;html=1;rounded=0;hachureGap=4;fontFamily=Architects Daughter;fontSource=https%3A%2F%2Ffonts.googleapis.com%2Fcss%3Ffamily%3DArchitects%2BDaughter;strokeWidth=1;endSize=5;startSize=6;" edge="1" parent="SE1tes2HbzKyxx8Ehh8K-35">
          <mxGeometry width="50" height="50" relative="1" as="geometry">
            <mxPoint y="33.846153846153854" as="sourcePoint" />
            <mxPoint x="10" y="33.846153846153854" as="targetPoint" />
          </mxGeometry>
        </mxCell>
        <mxCell id="SE1tes2HbzKyxx8Ehh8K-26" value="" style="endArrow=none;html=1;rounded=0;hachureGap=4;fontFamily=Architects Daughter;fontSource=https%3A%2F%2Ffonts.googleapis.com%2Fcss%3Ffamily%3DArchitects%2BDaughter;strokeWidth=1;endSize=5;startSize=6;" edge="1" parent="SE1tes2HbzKyxx8Ehh8K-35">
          <mxGeometry width="50" height="50" relative="1" as="geometry">
            <mxPoint y="16.923076923076927" as="sourcePoint" />
            <mxPoint x="10" y="16.923076923076927" as="targetPoint" />
          </mxGeometry>
        </mxCell>
        <mxCell id="SE1tes2HbzKyxx8Ehh8K-27" value="" style="endArrow=none;html=1;rounded=0;hachureGap=4;fontFamily=Architects Daughter;fontSource=https%3A%2F%2Ffonts.googleapis.com%2Fcss%3Ffamily%3DArchitects%2BDaughter;strokeWidth=1;endSize=5;startSize=6;" edge="1" parent="SE1tes2HbzKyxx8Ehh8K-35">
          <mxGeometry width="50" height="50" relative="1" as="geometry">
            <mxPoint y="135.38461538461542" as="sourcePoint" />
            <mxPoint x="10" y="135.38461538461542" as="targetPoint" />
          </mxGeometry>
        </mxCell>
        <mxCell id="SE1tes2HbzKyxx8Ehh8K-28" value="" style="endArrow=none;html=1;rounded=0;hachureGap=4;fontFamily=Architects Daughter;fontSource=https%3A%2F%2Ffonts.googleapis.com%2Fcss%3Ffamily%3DArchitects%2BDaughter;strokeWidth=1;endSize=5;startSize=6;" edge="1" parent="SE1tes2HbzKyxx8Ehh8K-35">
          <mxGeometry width="50" height="50" relative="1" as="geometry">
            <mxPoint y="118.46153846153847" as="sourcePoint" />
            <mxPoint x="10" y="118.46153846153847" as="targetPoint" />
          </mxGeometry>
        </mxCell>
        <mxCell id="SE1tes2HbzKyxx8Ehh8K-29" value="" style="endArrow=none;html=1;rounded=0;hachureGap=4;fontFamily=Architects Daughter;fontSource=https%3A%2F%2Ffonts.googleapis.com%2Fcss%3Ffamily%3DArchitects%2BDaughter;strokeWidth=1;endSize=5;startSize=6;" edge="1" parent="SE1tes2HbzKyxx8Ehh8K-35">
          <mxGeometry width="50" height="50" relative="1" as="geometry">
            <mxPoint y="101.53846153846155" as="sourcePoint" />
            <mxPoint x="10" y="101.53846153846155" as="targetPoint" />
          </mxGeometry>
        </mxCell>
        <mxCell id="SE1tes2HbzKyxx8Ehh8K-30" value="" style="endArrow=none;html=1;rounded=0;hachureGap=4;fontFamily=Architects Daughter;fontSource=https%3A%2F%2Ffonts.googleapis.com%2Fcss%3Ffamily%3DArchitects%2BDaughter;strokeWidth=1;endSize=5;startSize=6;" edge="1" parent="SE1tes2HbzKyxx8Ehh8K-35">
          <mxGeometry width="50" height="50" relative="1" as="geometry">
            <mxPoint y="84.61538461538463" as="sourcePoint" />
            <mxPoint x="10" y="84.61538461538463" as="targetPoint" />
          </mxGeometry>
        </mxCell>
        <mxCell id="SE1tes2HbzKyxx8Ehh8K-31" value="" style="endArrow=none;html=1;rounded=0;hachureGap=4;fontFamily=Architects Daughter;fontSource=https%3A%2F%2Ffonts.googleapis.com%2Fcss%3Ffamily%3DArchitects%2BDaughter;strokeWidth=1;endSize=5;startSize=6;" edge="1" parent="SE1tes2HbzKyxx8Ehh8K-35">
          <mxGeometry width="50" height="50" relative="1" as="geometry">
            <mxPoint y="203.0769230769231" as="sourcePoint" />
            <mxPoint x="10" y="203.0769230769231" as="targetPoint" />
          </mxGeometry>
        </mxCell>
        <mxCell id="SE1tes2HbzKyxx8Ehh8K-32" value="" style="endArrow=none;html=1;rounded=0;hachureGap=4;fontFamily=Architects Daughter;fontSource=https%3A%2F%2Ffonts.googleapis.com%2Fcss%3Ffamily%3DArchitects%2BDaughter;strokeWidth=1;endSize=5;startSize=6;" edge="1" parent="SE1tes2HbzKyxx8Ehh8K-35">
          <mxGeometry width="50" height="50" relative="1" as="geometry">
            <mxPoint y="186.15384615384616" as="sourcePoint" />
            <mxPoint x="10" y="186.15384615384616" as="targetPoint" />
          </mxGeometry>
        </mxCell>
        <mxCell id="SE1tes2HbzKyxx8Ehh8K-33" value="" style="endArrow=none;html=1;rounded=0;hachureGap=4;fontFamily=Architects Daughter;fontSource=https%3A%2F%2Ffonts.googleapis.com%2Fcss%3Ffamily%3DArchitects%2BDaughter;strokeWidth=1;endSize=5;startSize=6;" edge="1" parent="SE1tes2HbzKyxx8Ehh8K-35">
          <mxGeometry width="50" height="50" relative="1" as="geometry">
            <mxPoint y="169.23076923076925" as="sourcePoint" />
            <mxPoint x="10" y="169.23076923076925" as="targetPoint" />
          </mxGeometry>
        </mxCell>
        <mxCell id="SE1tes2HbzKyxx8Ehh8K-34" value="" style="endArrow=none;html=1;rounded=0;hachureGap=4;fontFamily=Architects Daughter;fontSource=https%3A%2F%2Ffonts.googleapis.com%2Fcss%3Ffamily%3DArchitects%2BDaughter;strokeWidth=1;endSize=5;startSize=6;" edge="1" parent="SE1tes2HbzKyxx8Ehh8K-35">
          <mxGeometry width="50" height="50" relative="1" as="geometry">
            <mxPoint y="152.30769230769232" as="sourcePoint" />
            <mxPoint x="10" y="152.30769230769232" as="targetPoint" />
          </mxGeometry>
        </mxCell>
        <mxCell id="SE1tes2HbzKyxx8Ehh8K-39" value="" style="endArrow=classic;html=1;rounded=0;hachureGap=4;fontFamily=Architects Daughter;fontSource=https%3A%2F%2Ffonts.googleapis.com%2Fcss%3Ffamily%3DArchitects%2BDaughter;" edge="1" parent="1">
          <mxGeometry width="50" height="50" relative="1" as="geometry">
            <mxPoint x="230" y="507.34999999999997" as="sourcePoint" />
            <mxPoint x="280" y="507.18" as="targetPoint" />
          </mxGeometry>
        </mxCell>
        <mxCell id="SE1tes2HbzKyxx8Ehh8K-41" value="&lt;font style=&quot;font-size: 16px;&quot;&gt;Video&lt;/font&gt;&lt;div&gt;&lt;font style=&quot;font-size: 16px;&quot;&gt;Tokenizer&lt;/font&gt;&lt;/div&gt;" style="rounded=1;whiteSpace=wrap;html=1;sketch=1;hachureGap=4;jiggle=2;curveFitting=1;fontFamily=Architects Daughter;fontSource=https%3A%2F%2Ffonts.googleapis.com%2Fcss%3Ffamily%3DArchitects%2BDaughter;fillColor=#FFB570;strokeColor=#d79b00;" vertex="1" parent="1">
          <mxGeometry x="540" y="415" width="110" height="185" as="geometry" />
        </mxCell>
        <mxCell id="SE1tes2HbzKyxx8Ehh8K-42" value="" style="endArrow=classic;html=1;rounded=0;hachureGap=4;fontFamily=Architects Daughter;fontSource=https%3A%2F%2Ffonts.googleapis.com%2Fcss%3Ffamily%3DArchitects%2BDaughter;" edge="1" parent="1">
          <mxGeometry width="50" height="50" relative="1" as="geometry">
            <mxPoint x="500" y="509.81" as="sourcePoint" />
            <mxPoint x="530" y="509.81" as="targetPoint" />
          </mxGeometry>
        </mxCell>
        <mxCell id="SE1tes2HbzKyxx8Ehh8K-43" value="Projection Layer" style="text;whiteSpace=wrap;html=1;fontFamily=Architects Daughter;fontSource=https%3A%2F%2Ffonts.googleapis.com%2Fcss%3Ffamily%3DArchitects%2BDaughter;" vertex="1" parent="1">
          <mxGeometry x="550" y="621" width="100" height="30" as="geometry" />
        </mxCell>
        <mxCell id="SE1tes2HbzKyxx8Ehh8K-58" value="" style="endArrow=classic;html=1;rounded=0;hachureGap=4;fontFamily=Architects Daughter;fontSource=https%3A%2F%2Ffonts.googleapis.com%2Fcss%3Ffamily%3DArchitects%2BDaughter;" edge="1" parent="1">
          <mxGeometry width="50" height="50" relative="1" as="geometry">
            <mxPoint x="670" y="507.31" as="sourcePoint" />
            <mxPoint x="700" y="507.31" as="targetPoint" />
          </mxGeometry>
        </mxCell>
        <mxCell id="SE1tes2HbzKyxx8Ehh8K-61" value="" style="group;strokeColor=default;strokeWidth=2;fillColor=none;" vertex="1" connectable="0" parent="1">
          <mxGeometry x="720" y="440" width="10" height="140" as="geometry" />
        </mxCell>
        <mxCell id="SE1tes2HbzKyxx8Ehh8K-45" value="" style="rounded=1;whiteSpace=wrap;html=1;hachureGap=4;fontFamily=Architects Daughter;fontSource=https%3A%2F%2Ffonts.googleapis.com%2Fcss%3Ffamily%3DArchitects%2BDaughter;fillStyle=solid;fillColor=#fff2cc;strokeColor=#d6b656;gradientColor=light-dark(#FF6666,#EDEDED);gradientDirection=south;shadow=0;" vertex="1" parent="SE1tes2HbzKyxx8Ehh8K-61">
          <mxGeometry width="10" height="140" as="geometry" />
        </mxCell>
        <mxCell id="SE1tes2HbzKyxx8Ehh8K-46" value="" style="endArrow=none;html=1;rounded=0;hachureGap=4;fontFamily=Architects Daughter;fontSource=https%3A%2F%2Ffonts.googleapis.com%2Fcss%3Ffamily%3DArchitects%2BDaughter;strokeWidth=1;endSize=5;startSize=6;" edge="1" parent="SE1tes2HbzKyxx8Ehh8K-61">
          <mxGeometry width="50" height="50" relative="1" as="geometry">
            <mxPoint y="20" as="sourcePoint" />
            <mxPoint x="10" y="20" as="targetPoint" />
          </mxGeometry>
        </mxCell>
        <mxCell id="SE1tes2HbzKyxx8Ehh8K-50" value="" style="endArrow=none;html=1;rounded=0;hachureGap=4;fontFamily=Architects Daughter;fontSource=https%3A%2F%2Ffonts.googleapis.com%2Fcss%3Ffamily%3DArchitects%2BDaughter;strokeWidth=1;endSize=5;startSize=6;" edge="1" parent="SE1tes2HbzKyxx8Ehh8K-61">
          <mxGeometry width="50" height="50" relative="1" as="geometry">
            <mxPoint y="100" as="sourcePoint" />
            <mxPoint x="10" y="100" as="targetPoint" />
          </mxGeometry>
        </mxCell>
        <mxCell id="SE1tes2HbzKyxx8Ehh8K-51" value="" style="endArrow=none;html=1;rounded=0;hachureGap=4;fontFamily=Architects Daughter;fontSource=https%3A%2F%2Ffonts.googleapis.com%2Fcss%3Ffamily%3DArchitects%2BDaughter;strokeWidth=1;endSize=5;startSize=6;" edge="1" parent="SE1tes2HbzKyxx8Ehh8K-61">
          <mxGeometry width="50" height="50" relative="1" as="geometry">
            <mxPoint y="80" as="sourcePoint" />
            <mxPoint x="10" y="80" as="targetPoint" />
          </mxGeometry>
        </mxCell>
        <mxCell id="SE1tes2HbzKyxx8Ehh8K-52" value="" style="endArrow=none;html=1;rounded=0;hachureGap=4;fontFamily=Architects Daughter;fontSource=https%3A%2F%2Ffonts.googleapis.com%2Fcss%3Ffamily%3DArchitects%2BDaughter;strokeWidth=1;endSize=5;startSize=6;" edge="1" parent="SE1tes2HbzKyxx8Ehh8K-61">
          <mxGeometry width="50" height="50" relative="1" as="geometry">
            <mxPoint y="60" as="sourcePoint" />
            <mxPoint x="10" y="60" as="targetPoint" />
          </mxGeometry>
        </mxCell>
        <mxCell id="SE1tes2HbzKyxx8Ehh8K-53" value="" style="endArrow=none;html=1;rounded=0;hachureGap=4;fontFamily=Architects Daughter;fontSource=https%3A%2F%2Ffonts.googleapis.com%2Fcss%3Ffamily%3DArchitects%2BDaughter;strokeWidth=1;endSize=5;startSize=6;" edge="1" parent="SE1tes2HbzKyxx8Ehh8K-61">
          <mxGeometry width="50" height="50" relative="1" as="geometry">
            <mxPoint y="40" as="sourcePoint" />
            <mxPoint x="10" y="40" as="targetPoint" />
          </mxGeometry>
        </mxCell>
        <mxCell id="SE1tes2HbzKyxx8Ehh8K-57" value="" style="endArrow=none;html=1;rounded=0;hachureGap=4;fontFamily=Architects Daughter;fontSource=https%3A%2F%2Ffonts.googleapis.com%2Fcss%3Ffamily%3DArchitects%2BDaughter;strokeWidth=1;endSize=5;startSize=6;" edge="1" parent="SE1tes2HbzKyxx8Ehh8K-61">
          <mxGeometry width="50" height="50" relative="1" as="geometry">
            <mxPoint y="120" as="sourcePoint" />
            <mxPoint x="10" y="120" as="targetPoint" />
          </mxGeometry>
        </mxCell>
        <mxCell id="SE1tes2HbzKyxx8Ehh8K-40" value="" style="endArrow=classic;html=1;rounded=0;hachureGap=4;fontFamily=Architects Daughter;fontSource=https%3A%2F%2Ffonts.googleapis.com%2Fcss%3Ffamily%3DArchitects%2BDaughter;" edge="1" parent="1">
          <mxGeometry width="50" height="50" relative="1" as="geometry">
            <mxPoint x="440" y="509.8069230769231" as="sourcePoint" />
            <mxPoint x="470" y="509.8069230769231" as="targetPoint" />
          </mxGeometry>
        </mxCell>
        <mxCell id="SE1tes2HbzKyxx8Ehh8K-62" value="Video Toekens" style="text;whiteSpace=wrap;html=1;fontFamily=Architects Daughter;fontSource=https%3A%2F%2Ffonts.googleapis.com%2Fcss%3Ffamily%3DArchitects%2BDaughter;" vertex="1" parent="1">
          <mxGeometry x="680" y="621" width="100" height="30" as="geometry" />
        </mxCell>
        <mxCell id="SE1tes2HbzKyxx8Ehh8K-63" value="Frame Features" style="text;whiteSpace=wrap;html=1;fontFamily=Architects Daughter;fontSource=https%3A%2F%2Ffonts.googleapis.com%2Fcss%3Ffamily%3DArchitects%2BDaughter;" vertex="1" parent="1">
          <mxGeometry x="435" y="621" width="100" height="30" as="geometry" />
        </mxCell>
        <mxCell id="SE1tes2HbzKyxx8Ehh8K-64" value="Large&amp;nbsp;&lt;div&gt;Language Model&lt;/div&gt;" style="rounded=1;whiteSpace=wrap;html=1;hachureGap=4;fontFamily=Architects Daughter;fontSource=https%3A%2F%2Ffonts.googleapis.com%2Fcss%3Ffamily%3DArchitects%2BDaughter;fillColor=#E6E6E6;strokeColor=none;" vertex="1" parent="1">
          <mxGeometry x="820" y="367.5" width="150" height="392.5" as="geometry" />
        </mxCell>
        <mxCell id="SE1tes2HbzKyxx8Ehh8K-66" value="" style="rounded=1;whiteSpace=wrap;html=1;hachureGap=4;fontFamily=Architects Daughter;fontSource=https%3A%2F%2Ffonts.googleapis.com%2Fcss%3Ffamily%3DArchitects%2BDaughter;fillColor=#E6E6E6;strokeColor=none;" vertex="1" parent="1">
          <mxGeometry x="1030" y="367.5" width="150" height="392.5" as="geometry" />
        </mxCell>
        <mxCell id="SE1tes2HbzKyxx8Ehh8K-67" value="" style="endArrow=classic;html=1;rounded=0;hachureGap=4;fontFamily=Architects Daughter;fontSource=https%3A%2F%2Ffonts.googleapis.com%2Fcss%3Ffamily%3DArchitects%2BDaughter;" edge="1" parent="1">
          <mxGeometry width="50" height="50" relative="1" as="geometry">
            <mxPoint x="990" y="553.43" as="sourcePoint" />
            <mxPoint x="1020" y="553.43" as="targetPoint" />
          </mxGeometry>
        </mxCell>
        <mxCell id="SE1tes2HbzKyxx8Ehh8K-68" value="" style="endArrow=classic;html=1;rounded=0;hachureGap=4;fontFamily=Architects Daughter;fontSource=https%3A%2F%2Ffonts.googleapis.com%2Fcss%3Ffamily%3DArchitects%2BDaughter;" edge="1" parent="1">
          <mxGeometry width="50" height="50" relative="1" as="geometry">
            <mxPoint x="780" y="507.18" as="sourcePoint" />
            <mxPoint x="810" y="507.18" as="targetPoint" />
          </mxGeometry>
        </mxCell>
        <mxCell id="SE1tes2HbzKyxx8Ehh8K-77" value="User Query&lt;div&gt;”绿色的山地车“&lt;/div&gt;" style="rounded=1;whiteSpace=wrap;html=1;hachureGap=4;fontFamily=Architects Daughter;fontSource=https%3A%2F%2Ffonts.googleapis.com%2Fcss%3Ffamily%3DArchitects%2BDaughter;fillColor=#E6E6E6;strokeColor=none;" vertex="1" parent="1">
          <mxGeometry x="40" y="670" width="180" height="100" as="geometry" />
        </mxCell>
        <mxCell id="SE1tes2HbzKyxx8Ehh8K-78" value="" style="endArrow=classic;html=1;rounded=0;hachureGap=4;fontFamily=Architects Daughter;fontSource=https%3A%2F%2Ffonts.googleapis.com%2Fcss%3Ffamily%3DArchitects%2BDaughter;" edge="1" parent="1">
          <mxGeometry width="50" height="50" relative="1" as="geometry">
            <mxPoint x="230" y="719.8399999999999" as="sourcePoint" />
            <mxPoint x="630" y="720" as="targetPoint" />
          </mxGeometry>
        </mxCell>
        <mxCell id="SE1tes2HbzKyxx8Ehh8K-81" value="" style="verticalLabelPosition=bottom;html=1;verticalAlign=top;align=center;strokeColor=none;fillColor=#00BEF2;shape=mxgraph.azure.cloud_services_configuration_file;pointerEvents=1;hachureGap=4;fontFamily=Architects Daughter;fontSource=https%3A%2F%2Ffonts.googleapis.com%2Fcss%3Ffamily%3DArchitects%2BDaughter;" vertex="1" parent="1">
          <mxGeometry x="650" y="705" width="27" height="30" as="geometry" />
        </mxCell>
        <mxCell id="SE1tes2HbzKyxx8Ehh8K-82" value="Text Toekens" style="text;whiteSpace=wrap;html=1;fontFamily=Architects Daughter;fontSource=https%3A%2F%2Ffonts.googleapis.com%2Fcss%3Ffamily%3DArchitects%2BDaughter;" vertex="1" parent="1">
          <mxGeometry x="620" y="735" width="100" height="30" as="geometry" />
        </mxCell>
        <mxCell id="SE1tes2HbzKyxx8Ehh8K-83" value="" style="group" vertex="1" connectable="0" parent="1">
          <mxGeometry x="700" y="680" width="10" height="80" as="geometry" />
        </mxCell>
        <mxCell id="SE1tes2HbzKyxx8Ehh8K-70" value="" style="rounded=1;whiteSpace=wrap;html=1;hachureGap=4;fontFamily=Architects Daughter;fontSource=https%3A%2F%2Ffonts.googleapis.com%2Fcss%3Ffamily%3DArchitects%2BDaughter;fillStyle=solid;fillColor=#B9E0A5;strokeColor=#000000;gradientColor=light-dark(#FF6666,#EDEDED);gradientDirection=south;shadow=0;strokeWidth=1;" vertex="1" parent="SE1tes2HbzKyxx8Ehh8K-83">
          <mxGeometry width="10" height="80" as="geometry" />
        </mxCell>
        <mxCell id="SE1tes2HbzKyxx8Ehh8K-72" value="" style="endArrow=none;html=1;rounded=0;hachureGap=4;fontFamily=Architects Daughter;fontSource=https%3A%2F%2Ffonts.googleapis.com%2Fcss%3Ffamily%3DArchitects%2BDaughter;strokeWidth=1;endSize=5;startSize=6;" edge="1" parent="SE1tes2HbzKyxx8Ehh8K-83">
          <mxGeometry width="50" height="50" relative="1" as="geometry">
            <mxPoint y="60" as="sourcePoint" />
            <mxPoint x="10" y="60" as="targetPoint" />
          </mxGeometry>
        </mxCell>
        <mxCell id="SE1tes2HbzKyxx8Ehh8K-73" value="" style="endArrow=none;html=1;rounded=0;hachureGap=4;fontFamily=Architects Daughter;fontSource=https%3A%2F%2Ffonts.googleapis.com%2Fcss%3Ffamily%3DArchitects%2BDaughter;strokeWidth=1;endSize=5;startSize=6;" edge="1" parent="SE1tes2HbzKyxx8Ehh8K-83">
          <mxGeometry width="50" height="50" relative="1" as="geometry">
            <mxPoint y="40" as="sourcePoint" />
            <mxPoint x="10" y="40" as="targetPoint" />
          </mxGeometry>
        </mxCell>
        <mxCell id="SE1tes2HbzKyxx8Ehh8K-74" value="" style="endArrow=none;html=1;rounded=0;hachureGap=4;fontFamily=Architects Daughter;fontSource=https%3A%2F%2Ffonts.googleapis.com%2Fcss%3Ffamily%3DArchitects%2BDaughter;strokeWidth=1;endSize=5;startSize=6;" edge="1" parent="SE1tes2HbzKyxx8Ehh8K-83">
          <mxGeometry width="50" height="50" relative="1" as="geometry">
            <mxPoint y="20" as="sourcePoint" />
            <mxPoint x="10" y="20" as="targetPoint" />
          </mxGeometry>
        </mxCell>
        <mxCell id="SE1tes2HbzKyxx8Ehh8K-84" value="" style="endArrow=classic;html=1;rounded=0;hachureGap=4;fontFamily=Architects Daughter;fontSource=https%3A%2F%2Ffonts.googleapis.com%2Fcss%3Ffamily%3DArchitects%2BDaughter;" edge="1" parent="1">
          <mxGeometry width="50" height="50" relative="1" as="geometry">
            <mxPoint x="740" y="719.6700000000001" as="sourcePoint" />
            <mxPoint x="800" y="720" as="targetPoint" />
          </mxGeometry>
        </mxCell>
        <mxCell id="SE1tes2HbzKyxx8Ehh8K-87" value="" style="group" vertex="1" connectable="0" parent="1">
          <mxGeometry x="1045" y="415" width="35" height="25" as="geometry" />
        </mxCell>
        <mxCell id="SE1tes2HbzKyxx8Ehh8K-85" value="" style="rounded=1;whiteSpace=wrap;html=1;hachureGap=4;fontFamily=Architects Daughter;fontSource=https%3A%2F%2Ffonts.googleapis.com%2Fcss%3Ffamily%3DArchitects%2BDaughter;" vertex="1" parent="SE1tes2HbzKyxx8Ehh8K-87">
          <mxGeometry width="35" height="25" as="geometry" />
        </mxCell>
        <mxCell id="SE1tes2HbzKyxx8Ehh8K-86" value="" style="triangle;whiteSpace=wrap;html=1;hachureGap=4;fontFamily=Architects Daughter;fontSource=https%3A%2F%2Ffonts.googleapis.com%2Fcss%3Ffamily%3DArchitects%2BDaughter;" vertex="1" parent="SE1tes2HbzKyxx8Ehh8K-87">
          <mxGeometry x="15" y="5" width="10" height="15" as="geometry" />
        </mxCell>
        <mxCell id="SE1tes2HbzKyxx8Ehh8K-88" value="Results" style="text;whiteSpace=wrap;html=1;fontFamily=Architects Daughter;fontSource=https%3A%2F%2Ffonts.googleapis.com%2Fcss%3Ffamily%3DArchitects%2BDaughter;align=center;" vertex="1" parent="1">
          <mxGeometry x="1055" y="380" width="100" height="30" as="geometry" />
        </mxCell>
        <mxCell id="SE1tes2HbzKyxx8Ehh8K-89" value="&lt;p&gt;&lt;font face=&quot;Helvetica&quot;&gt;01:10-01:15&lt;/font&gt;&lt;/p&gt;" style="text;whiteSpace=wrap;html=1;fontFamily=Architects Daughter;fontSource=https%3A%2F%2Ffonts.googleapis.com%2Fcss%3Ffamily%3DArchitects%2BDaughter;verticalAlign=middle;strokeColor=default;rounded=1;" vertex="1" parent="1">
          <mxGeometry x="1090" y="416.25" width="70" height="23.75" as="geometry" />
        </mxCell>
        <mxCell id="SE1tes2HbzKyxx8Ehh8K-90" value="" style="group" vertex="1" connectable="0" parent="1">
          <mxGeometry x="1047.5" y="520" width="35" height="25" as="geometry" />
        </mxCell>
        <mxCell id="SE1tes2HbzKyxx8Ehh8K-91" value="" style="rounded=1;whiteSpace=wrap;html=1;hachureGap=4;fontFamily=Architects Daughter;fontSource=https%3A%2F%2Ffonts.googleapis.com%2Fcss%3Ffamily%3DArchitects%2BDaughter;" vertex="1" parent="SE1tes2HbzKyxx8Ehh8K-90">
          <mxGeometry width="35" height="25" as="geometry" />
        </mxCell>
        <mxCell id="SE1tes2HbzKyxx8Ehh8K-92" value="" style="triangle;whiteSpace=wrap;html=1;hachureGap=4;fontFamily=Architects Daughter;fontSource=https%3A%2F%2Ffonts.googleapis.com%2Fcss%3Ffamily%3DArchitects%2BDaughter;" vertex="1" parent="SE1tes2HbzKyxx8Ehh8K-90">
          <mxGeometry x="15" y="5" width="10" height="15" as="geometry" />
        </mxCell>
        <mxCell id="SE1tes2HbzKyxx8Ehh8K-93" value="&lt;p&gt;&lt;font face=&quot;Helvetica&quot;&gt;02:01-02:03&lt;/font&gt;&lt;/p&gt;" style="text;whiteSpace=wrap;html=1;fontFamily=Architects Daughter;fontSource=https%3A%2F%2Ffonts.googleapis.com%2Fcss%3Ffamily%3DArchitects%2BDaughter;verticalAlign=middle;strokeColor=default;rounded=1;" vertex="1" parent="1">
          <mxGeometry x="1092.5" y="521.25" width="70" height="23.75" as="geometry" />
        </mxCell>
        <mxCell id="SE1tes2HbzKyxx8Ehh8K-95" value="" style="group" vertex="1" connectable="0" parent="1">
          <mxGeometry x="1047.5" y="623.5" width="35" height="25" as="geometry" />
        </mxCell>
        <mxCell id="SE1tes2HbzKyxx8Ehh8K-96" value="" style="rounded=1;whiteSpace=wrap;html=1;hachureGap=4;fontFamily=Architects Daughter;fontSource=https%3A%2F%2Ffonts.googleapis.com%2Fcss%3Ffamily%3DArchitects%2BDaughter;" vertex="1" parent="SE1tes2HbzKyxx8Ehh8K-95">
          <mxGeometry width="35" height="25" as="geometry" />
        </mxCell>
        <mxCell id="SE1tes2HbzKyxx8Ehh8K-97" value="" style="triangle;whiteSpace=wrap;html=1;hachureGap=4;fontFamily=Architects Daughter;fontSource=https%3A%2F%2Ffonts.googleapis.com%2Fcss%3Ffamily%3DArchitects%2BDaughter;" vertex="1" parent="SE1tes2HbzKyxx8Ehh8K-95">
          <mxGeometry x="15" y="5" width="10" height="15" as="geometry" />
        </mxCell>
        <mxCell id="SE1tes2HbzKyxx8Ehh8K-98" value="&lt;p&gt;&lt;font face=&quot;Helvetica&quot;&gt;02:21-02:23&lt;/font&gt;&lt;/p&gt;" style="text;whiteSpace=wrap;html=1;fontFamily=Architects Daughter;fontSource=https%3A%2F%2Ffonts.googleapis.com%2Fcss%3Ffamily%3DArchitects%2BDaughter;verticalAlign=middle;strokeColor=default;rounded=1;" vertex="1" parent="1">
          <mxGeometry x="1092.5" y="624.75" width="70" height="23.75" as="geometry" />
        </mxCell>
      </root>
    </mxGraphModel>
  </diagram>
</mxfile>
